<!--?xml version="1.0" encoding="utf-8"?-->
<!-- Generator: Adobe Illustrator 22.1.0, SVG Export Plug-In . SVG Version: 6.00 Build 0)  -->
<svg version="1.1" id="_x33_" xmlns="http://www.w3.org/2000/svg" xmlns:xlink="http://www.w3.org/1999/xlink" x="0px" y="0px" viewBox="0 0 800 799.994" style="enable-background:new 0 0 800 799.994;" xml:space="preserve">
<style type="text/css">
	.st0{fill:#040000;}
</style>
<g>
	<path class="st0" d="M549.639,95.828c-125.116-125.105-328.686-125.105-453.802,0c-125.116,125.116-125.116,328.7,0,453.804
		c110.517,110.517,282.228,123.391,407.025,38.672l191.981,191.989c23.598,23.601,61.858,23.601,85.459,0
		c23.598-23.609,23.598-61.86,0-85.458L588.323,502.857C673.019,378.046,660.147,206.337,549.639,95.828z M486.34,486.334
		c-90.207,90.217-236.986,90.217-327.206,0c-90.207-90.209-90.207-236.989,0-327.196c90.22-90.22,236.999-90.22,327.206,0
		C576.549,249.345,576.549,396.125,486.34,486.334z"></path>
</g>
</svg>
