<!--?xml version="1.0" encoding="utf-8"?-->
<!-- Generator: Adobe Illustrator 22.1.0, SVG Export Plug-In . SVG Version: 6.00 Build 0)  -->
<svg version="1.1" id="_x36_" xmlns="http://www.w3.org/2000/svg" xmlns:xlink="http://www.w3.org/1999/xlink" x="0px" y="0px" viewBox="0 0 732.196 800" style="enable-background:new 0 0 732.196 800;" xml:space="preserve">
<style type="text/css">
	.st0{fill:#040000;}
</style>
<g>
	<path class="st0" d="M188.523,770.41c-10.28,7.951-33.146,19.398-51.009,27.59c4.57-8.305,9.515-18.04,15.302-29.89l9.888-19.693
		c18.609-34.116,46.428-73.737,56.296-76.537c11.428,9.535,20.541,21.095,28.093,32.258
		C239.797,730.786,203.904,758.55,188.523,770.41L188.523,770.41z"></path>
	<path class="st0" d="M34.329,494.717C22.038,481.553,11.61,471.39,1.83,467.81c0.725-6.395,5.993-21.566,9.387-31.302l7.22-21.728
		c6.591-22.552,64.428-170.395,72.639-183.245c3.344-5.194,8.583-8.107,15.606-8.617c13.449-0.971,31.194,7.166,42.505,18.982
		c-5.738,12.051-9.819,24.896-10.29,34.313c-0.079,1.432-0.108,3.374-0.108,5.708c0,25.578,4.09,101.175,9.986,115.903
		c3.492,8.795,12.919,19.011,22.021,28.889c6.387,6.911,13.616,14.758,15.273,18.696c3.797,9.167,7.877,37.742,7.877,60.269
		c0,2.138-0.039,4.223-0.117,6.254c-0.265,6.758-5.591,15.14-14.625,22.974c-12.793,11.064-29.046,17.686-36.227,16.931
		C127.488,550.209,46.267,507.508,34.329,494.717L34.329,494.717z"></path>
	<path class="st0" d="M700.622,596.314c-18.706,5.998-39.894,12.762-55.364,12.281c-26.878-0.833-76.769-11.653-100.498-22.787
		c5.062-3.983,10.712-8.073,17.403-11.673c21.551-11.62,44.28-9.393,63.682-5.715c10.476,2.001,19.55-0.682,26.848-4.708v1.344
		c11.674,0,51.176,14.101,72.579,24.009C717.583,590.977,709.275,593.576,700.622,596.314L700.622,596.314z"></path>
	<path class="st0" d="M528.948,578.186c-7.475,6.111-13.4,10.932-17.303,10.108c-8.799-1.883-23.818-7.735-31.459-11.507
		c0.667-5.164,0.833-9.677,0.422-13.33c-2.188-18.927-15.372-39.454-30.37-54.668c16.283-1.339,29.015-6.739,37.962-10.55
		l2.511-1.07c21.002-8.847,95.789-107.422,102.989-125.408c5.474-13.733,8.083-27.834,7.956-42.68
		c10.055,9.623,21.267,22.095,25.69,28.437c5.21,7.45,16.451,8.765,30.674,10.417c10.329,1.226,23.189,2.742,28.594,7.049
		c8.75,6.994,18.815,34.176,21.14,89.069c-10.546,23.901-29.713,30.075-30.527,30.32l-4.267,1.315l-1.167,4.335
		c-3.983,15.533-9.819,34.343-12.164,37.644l-1.216,1.206c-5.16,5.395-15.931,16.593-29.616,13.993
		c-20.825-3.969-48.075-6.71-74.159,7.318C543.947,565.938,535.638,572.731,528.948,578.186L528.948,578.186z"></path>
	<path class="st0" d="M493.34,689.149c-9.495,13.047-22.051,49.848-30.88,78.196c-1.844-11.85-4.032-24.269-6.239-33.49
		l-5.405-19.957c-3.61-12.772-9.889-34.956-9.889-44.731c0-0.599,0.039-1.099,0.099-1.599
		c16.794-22.007,29.722-51.157,35.863-74.482c8.24,3.929,18.069,7.029,24.533,8.852c2.355,9.878,3.58,21.835,3.58,33.887
		C505.003,656.896,501.276,678.246,493.34,689.149L493.34,689.149z"></path>
	<path class="st0" d="M428.893,657.465l-0.784-0.486c-0.658,1.025-1.119,2.227-1.541,3.453c-7.24,9.123-15.156,16.543-23.493,20.713
		l-11.762,5.924c-65.664,33.229-102.558,47.355-109.69,42.018l-9.024-14.273c-11.938-19.682-28.231-46.648-55.403-64.002
		l-11.134-6.925c-31.832-19.54-55.345-36.266-55.345-61.618c0-4.914,0.951-10.178,2.826-15.847
		c12.34-3.022,26.27-11.105,36.01-19.55c8.877-7.667,19.54-19.86,20.1-34.347c0.078-2.11,0.127-4.341,0.127-6.622
		c0-5.253-0.245-10.893-0.618-16.612c9.995-0.898,24.779-2.061,42.337,9.132c19.806,12.591,61.368,28.208,94.701,19.615
		c18.402-4.768,34.725-12.934,45.869-22.268c11.762,6.082,22.61,9.677,32.586,11.59l-0.156,0.23
		c17.608,12.047,38.04,37.512,40.365,57.695c0.403,3.394-0.019,8.221-1.118,13.988h-1.727c0,1.138,0.432,2.266,1.05,3.364
		C458.4,603.739,445.676,635.04,428.893,657.465L428.893,657.465z"></path>
	<path class="st0" d="M153.464,157.514c3.502-3.482,16.784-12.875,29.614-21.978l31.028-22.654l1.726-1.358
		c18.207-14.342,56.11-44.222,77.633-84.469c11.134-20.811,18.098-24.607,21.247-25.009c3.178-0.431,7.2,2.271,13.488,8.991
		c14.831,15.906,56.07,38.683,81.241,41.567c23.277,2.713,81.271,25.578,89.226,31.204c24.582,17.353,33.656,29.433,32.303,43.048
		c-1.422,3.512-15.666,13.332-24.946,17.211c-1.285-0.344-2.492-0.652-3.571-0.809c-4.012-8.181-9.584-12.791-15.263-16.657
		l-2.256-1.574c-9.623-7.225-66.224-20.237-77.71-21.124c-4.307-0.344-18.07-5.282-30.204-9.648
		c-22.983-8.249-38.708-13.664-47.684-13.664c-18.686,0-49.586,17.603-62.132,42.724l-1.363,2.825
		c-5.65,3.13-10.693,6.965-14.695,10.791c-4.012,0.401-8.867,2.285-14.017,7.455c-10.242,10.216-23.348,46.643-26.663,65.399
		c-13.969-3.311-28.447-4.424-36.854,0.367c-2.53,1.433-5.052,3.634-7.553,6.229C152.13,189.001,150.167,162.281,153.464,157.514
		L153.464,157.514z"></path>
	<path class="st0" d="M385.074,355.532c-0.706-0.27-1.413-0.554-2.158-0.786l-7.268-1.77c-10.359-32.744-13.057-62.29-7.828-87.814
		c7.994-39.134,10.829-90.208,8.308-100.341c-4.021-16.102-16.235-27.108-36.294-32.714c-12.88-3.615-20.747-4.111-25.74-1.599
		c-1.541-1.472-3.149-2.938-4.925-4.371c-6.033-4.909-12.791-6.852-19.648-6.837c12.556-13.262,30.645-22.881,39.816-22.881
		c6.887,0,27.378,7.367,42.318,12.763c17.305,6.195,28.232,10.045,34.343,10.506c12.409,0.965,63.093,13.674,69.47,18.025
		l2.816,1.986c6.445,4.4,14.469,9.849,14.469,37.281c0,26.191-29.458,60.661-48.948,83.472l-11.743,14.048
		C416.934,293.624,394.835,332.166,385.074,355.532L385.074,355.532z"></path>
	<path class="st0" d="M291.296,225.537c3.011,5.228,6.435,11.124,7.043,12.752c1.109,6.862,8.829,7.749,21.178,8.974
		c9.084,0.933,26.878,2.742,34.284,6.936c-0.481,2.614-0.971,5.229-1.501,7.798c-5.267,25.75-3.423,54.84,5.454,86.613l-1.108-0.26
		c-27.191-6.135-72.688-16.411-86.863-26.887c-20.256-14.96-24.493-39.626-23.807-51.843l3.07-43.053l-3.237-2.678
		c-3.384-2.717-10.957-6.366-20.08-9.594c1.795-13.62,14.528-50.675,22.591-58.724c1.982-1.967,4.788-3.109,4.788-2.879
		c1.138,0.024,5.414,1.452,11.928,20.35C271.176,190.826,283.272,211.726,291.296,225.537L291.296,225.537z"></path>
	<path class="st0" d="M304.773,217.233c-7.709-13.301-19.187-33.171-24.748-49.361c-3.836-11.015-7.965-18.868-12.684-23.944
		c9.868-7.254,23.396-12.364,31.852-5.498c12.468,10.118,17.568,20.767,17.568,36.697
		C316.761,187.746,312.328,204.977,304.773,217.233L304.773,217.233z"></path>
	<path class="st0" d="M332.584,175.126c0-11.561-2.335-21.355-7.151-30.061c2.305,0.344,5.533,1.001,10.142,2.286
		c21.336,5.993,24.278,17.524,25.171,21.296c1.177,4.939,0.392,36.084-4.366,69.441c-9.251-3.581-21.58-5.18-35.284-6.568
		c-2.079-0.211-4.365-0.442-6.367-0.697C326.462,215.311,332.584,192.083,332.584,175.126L332.584,175.126z"></path>
	<path class="st0" d="M388.429,429.342l0.029,2.796l1.412,12.105c0.942,6.082,2.167,13.788,2.167,20.355
		c0,2.501-0.186,4.836-0.617,6.852c-1.717,8.024-20.227,23.749-49.165,31.228c-26.76,6.911-64.203-6.136-82.242-17.638
		c-22.101-14.047-41.544-12.491-52.285-11.511c-1.688-14.311-4.218-27.397-7.053-34.196c-2.718-6.508-9.898-14.317-18.236-23.351
		c-7.74-8.426-16.538-17.957-18.972-24.037c-4.473-11.193-8.876-82.243-8.876-108.737c0-2.487,0.049-4.581,0.128-6.194
		c0.814-16.373,16.313-47.16,26.759-53.124c7.799-4.459,38.905,3.624,51.156,10.275c-0.54,7.362-2.472,34.568-2.472,34.568
		c-0.078,1.172-0.107,2.399-0.107,3.654c0,18.952,7.798,45.192,30.31,61.809c16.853,12.473,60.731,22.381,92.787,29.605
		l25.015,6.048c9.319,2.937,14.37,8.279,15.989,12.305c0.441,1.114,0.667,2.169,0.667,3.193c0,1.059-0.245,2.026-0.746,2.958
		c-5.061,9.294-5.699,24.763-5.699,35.667C388.38,425.943,388.419,427.743,388.429,429.342L388.429,429.342z"></path>
	<path class="st0" d="M405.516,441.791l-1.236-9.653l-0.02-2.967c-0.078-7.764-0.275-25.946,3.708-33.289
		c3.267-5.964,3.57-12.933,0.883-19.643c-1.971-4.905-5.366-9.305-9.849-12.983c8.249-20.384,29.751-59.038,45.496-78.937
		l11.359-13.571c22.258-26.054,52.735-61.735,52.735-93.768c0-5.993-0.363-11.188-1.001-15.783
		c16.912,7.018,52.461,29.629,53.149,61.574c0.628,29.752,9.004,49.704,15.753,65.717c3.473,8.255,6.465,15.358,7.642,22.082
		c3.452,19.913,1.765,38.012-5.141,55.296c-7.297,18.225-80.073,110.665-94.434,116.717l-2.6,1.084
		c-16.823,7.19-41.7,17.784-78.878-0.024c1.875-2.972,3.209-5.94,3.827-8.883C409.097,464.598,407.105,451.948,405.516,441.791
		L405.516,441.791z"></path>
	<path class="st0" d="M569.403,140.386c2.687,0.967,9.917,10.276,14.243,15.813l11.997,14.277l47.85,47.846l1.708,0.599
		c4.512,1.564,44.633,15.326,63.133,15.326c9.79,0,17.794,4.626,22.032,7.563c-3.464,18.215-16.755,84.39-33.686,120.96
		l-0.157-0.148c-8.956-7.166-23.68-8.878-36.668-10.388c-6.974-0.824-17.539-2.084-19.707-4.012
		c-6.111-8.75-27.299-32.156-40.777-41.949c-1.619-7.937-4.816-15.73-8.27-23.921c-6.552-15.558-13.968-33.175-14.537-59.926
		c-0.687-32.028-27.202-56.267-49.557-69.123C542.593,145.552,564.86,139.926,569.403,140.386L569.403,140.386z"></path>
	<path class="st0" d="M523.955,654.694l-4.659,25.151c74.493,110.817,75.434,114.529,75.434,114.529
		c0.922,3.728,8.378-19.554,8.378-19.554C537.002,669.595,523.955,654.694,523.955,654.694L523.955,654.694z"></path>
</g>
</svg>
